<svg xmlns="http://www.w3.org/2000/svg" height="800" width="1200" viewBox="-33.95085 -56.5875 294.2407 339.525"><g fill="none"><path d="M.01.01h226.318v226.316H.01z" fill="#FFF"/><path fill="#F96302" d="M.01.01h142c11.43 0 22.863-.025 34.27.022-3.161 3.208-6.394 6.393-9.577 9.602 1.258 1.33 2.589 2.566 3.849 3.873 2.9-1.996 6.179-3.588 9.744-3.85 3.208-.333 6.44.5 9.387 1.783 1.117.475 2.163 1.235 3.422 1.354 1.236-.07 2.163-1.164 2.59-2.258.357-.759.024-1.663-.57-2.21-2.756-2.78-5.537-5.513-8.27-8.294 13.166-.07 26.332 0 39.475-.023 0 12.833.023 25.69 0 38.547-2.71-2.66-5.348-5.37-8.034-8.032-.713-.738-1.876-1.118-2.851-.666-.642.31-1.26.808-1.545 1.497-.357 1.38.262 2.733.808 3.968 1.664 3.518 2.4 7.487 1.902 11.361-.333 2.638-1.284 5.228-2.71 7.486a25.24 25.24 0 00-1.07 1.688c1.379 1.187 2.544 2.613 3.946 3.778 3.137-3.232 6.369-6.393 9.554-9.602 0 21.46.023 42.921 0 64.381-.62.214-1.308.642-1.95.332-.855-.546-1.497-1.354-2.21-2.043-7.7-7.653-15.33-15.377-23.052-23.005-3.066 3.066-6.083 6.155-9.198 9.15 1.64 1.853 3.47 3.493 5.182 5.275 6.179 6.18 12.357 12.36 18.56 18.537.523.547 1.14 1.023 1.426 1.736.095.784-.451 1.45-.665 2.162-.31.832.357 1.83 1.236 1.853.784.144 1.45-.38 1.949-.902 2.899-2.924 5.822-5.823 8.722-8.723v107.54H118.766c2.757-2.757 5.514-5.49 8.27-8.248a15855.845 15855.845 0 01-28.114-28.114c-3.065 2.947-6.012 6.013-9.054 8.983-.642.666-1.355 1.307-1.663 2.21-.143.88.665 1.711 1.52 1.76.76-.096 1.402-.596 2.163-.762.665-.046 1.189.476 1.663.904 5.562 5.608 11.147 11.17 16.732 16.755 1.4 1.472 2.923 2.803 4.229 4.325.595.665.19 1.52-.142 2.186H50.038l15.185-15.186c.95-.903 1.925-1.948 2.067-3.327.214-1.592-1.401-3.185-2.994-2.852-1.331.261-2.423 1.307-3.802 1.307-.88-.07-1.545-.713-2.14-1.283-12.096-12.073-24.168-24.169-36.241-36.243-.808-.807-1.782-1.59-2.068-2.757-.047-1.377.927-2.495 1.284-3.754.45-1.592-1.046-3.328-2.663-3.208-1.116.071-2.114.712-2.874 1.497-5.23 5.3-10.552 10.528-15.781 15.828C-.013 117.575.01 58.781.01.01"/><path fill="#FFF" d="M163.255 13.056c.214-.237.594-.452.808-.095a49488.629 49488.629 0 0149.67 49.67 11945.554 11945.554 0 00-17.42 17.443c-.761.713-1.688 1.307-2.733 1.378-1.45.12-2.9-1.188-2.781-2.662.048-1.449 1.283-2.566 1.307-4.04.048-.927-.665-1.615-1.26-2.258-12.286-12.262-24.55-24.548-36.836-36.836-.69-.665-1.45-1.497-2.495-1.425-1.545.023-2.71 1.45-4.277 1.283-.904.023-1.641-.69-2.092-1.426-.618-1.283-.048-2.828.88-3.778 5.75-5.752 11.502-11.503 17.229-17.254m23.86 4.824c.476-.879 1.379-1.687 2.448-1.545 1.188.096 2.044 1.07 2.828 1.854a8356.34 8356.34 0 0014.26 14.283c.903.88 1.972 1.735 2.186 3.042.119 1.354-1.117 2.566-2.424 2.71-1.093.023-2.091-.57-3.041-1.094-2.021-1.188-4.302-2.139-6.703-2.02-1.236-.024-2.423.475-3.541.974-1.307-1.402-2.804-2.66-4.04-4.11.38-1.07.879-2.092.95-3.234.168-2.589-.878-5.06-2.186-7.224-.665-1.069-1.188-2.4-.736-3.636M82.38 30.476c2.568-2.709 5.277-5.252 7.843-7.938 2.448 2.376 4.824 4.777 7.225 7.177.784.761.07 2.044-.808 2.353-.737.095-1.38-.404-2.044-.642-2.566-1.259-5.751-1.4-8.317-.023-.666.285-1.213.855-1.926.974-.713-.57-1.307-1.283-1.973-1.9m-1.615 1.52c3.493 3.374 6.868 6.868 10.314 10.266 5.395 5.371 10.765 10.79 16.184 16.161a1152.46 1152.46 0 01-9.316 9.316c-.642.712-1.925 1.022-2.543.142-.76-.808.07-1.806.309-2.638.285-.618-.213-1.164-.618-1.59A7115.543 7115.543 0 0176.464 45.02c-.57-.523-1.046-1.164-1.735-1.52-.95-.215-1.687.641-2.614.69-.713-.073-1.378-.785-1.283-1.523.047-.57.38-1.069.784-1.473 3.042-3.066 6.132-6.084 9.15-9.198M93.17 35.8c-.308-.784.238-1.734 1.07-1.853.618-.095 1.117.38 1.545.784 2.566 2.566 5.132 5.157 7.723 7.7.45.5 1.093.95 1.14 1.687.096.737-.617 1.45-1.377 1.378-1 0-1.76-.784-2.662-1.117-1.331-.617-2.947-.665-4.254.048-.69-.689-1.38-1.402-2.092-2.044.31-1.046.595-2.162.333-3.256-.19-1.235-1.046-2.186-1.426-3.327m45.51 1.854c.643-.642 1.45-1.117 2.354-1.236 1.59-.237 3.255 1.307 2.947 2.923-.214 1.426-1.402 2.566-1.308 4.065.238 1.044 1.094 1.757 1.782 2.495 12.145 12.12 24.289 24.216 36.385 36.36.666.595 1.33 1.38 2.282 1.38 1.426 0 2.519-1.07 3.874-1.309 1.568-.26 3.113 1.284 2.922 2.853-.094 1.07-.736 1.996-1.472 2.732-6.11 6.084-12.193 12.216-18.3 18.3-.784.784-1.782 1.497-2.946 1.497-1.285.071-2.52-1.02-2.686-2.28-.167-1.665 1.378-2.9 1.33-4.565-.071-.784-.617-1.425-1.14-1.996-10.671-10.646-21.318-21.317-31.988-31.964 8.817 16.374 17.705 32.702 26.522 49.076.142.237.26.5.38.784a45.51 45.51 0 00-1.877 1.877c-17.658-8.697-35.292-17.492-52.926-26.213-2.78-1.378-5.537-2.994-8.674-3.374-1.046-.144-1.76.713-2.52 1.26-.784.617-1.83.997-2.803.688-1.165-.522-1.973-1.9-1.616-3.16.237-.856.83-1.569 1.449-2.188 5.704-5.679 11.384-11.382 17.088-17.039 8.887 4.35 17.799 8.603 26.712 12.953.285.213.593.427.855.712.143-.167.262-.333.404-.499l-.333.047c-4.681-8.912-9.6-17.705-14.283-26.617 5.894-5.846 11.717-11.716 17.587-17.562m-31.204 4.016c.428-.784 1.64-.879 2.21-.214 2.4 2.424 4.849 4.848 7.272 7.273a910.815 910.815 0 01-8.174 8.151c-.618-.713-1.451-1.283-1.926-2.115.784-1.33 1.616-2.686 1.83-4.254.404-2.163.048-4.444-.88-6.44-.261-.76-.831-1.64-.332-2.4m-39.902 3.564c.475-.499.998-1.022 1.687-1.188.69-.142 1.545.285 1.64 1.045.167.832-.451 1.522-.617 2.33-.096.641.427 1.093.807 1.521 6.346 6.344 12.667 12.69 19.013 19.011.428.405.879.904 1.497 1.046.76-.07 1.4-.57 2.139-.736.903-.096 1.734.88 1.449 1.734-.118.642-.617 1.118-1.045 1.57-3.09 3.09-6.18 6.178-9.27 9.244-.545.547-1.258 1.117-2.067.927-.451-.19-.831-.547-.998-.998-.237-1.046.88-1.902.618-2.948-.237-.403-.57-.713-.88-1.045-2.898-2.876-5.774-5.799-8.697-8.674a191.478 191.478 0 01-3.09 3.09c-.713-.69-1.426-1.38-2.091-2.116 1.045-1.022 2.068-2.067 3.114-3.09-2.568-2.518-5.111-5.086-7.653-7.629-.547-.522-1.022-1.092-1.664-1.472-1.164-.38-2.281 1.26-3.398.356-.904-.64-.618-1.926.119-2.59 3.113-3.162 6.273-6.25 9.387-9.388"/><path fill="#FFF" d="M55.408 57.57c.714-.454 1.783-.168 2.115.64.333.974-.546 1.806-.57 2.757-.024.5.38.855.689 1.188 6.583 6.584 13.143 13.166 19.726 19.725 1.187 1.283 2.709-.927 3.992.024.832.666.547 1.972-.166 2.59-3.09 3.114-6.203 6.18-9.27 9.292-.498.476-.997 1.046-1.686 1.26-.761.214-1.688-.262-1.782-1.069-.143-.95.713-1.688.665-2.615-.12-.404-.38-.736-.665-1.045a6697.122 6697.122 0 01-18.657-18.656c-.593-.546-1.092-1.236-1.877-1.52-.855-.048-1.568.594-2.4.688-.713.024-1.331-.618-1.355-1.306-.071-.738.452-1.33.95-1.83 3.09-3.09 6.179-6.18 9.246-9.269.332-.309.64-.618 1.045-.855M38.226 74.561c1.426-1.379 2.804-2.805 4.23-4.207 2.496 2.425 4.943 4.943 7.439 7.391.428.475.95.903 1.187 1.521.286 1.165-1.044 2.448-2.21 1.925-1.164-.523-2.09-1.45-3.208-2.068-1.877-1.164-4.064-1.9-6.297-1.639-.642-.665-1.355-1.284-1.925-1.996.189-.38.499-.642.784-.927M27.864 84.922c2.662-2.614 5.276-5.252 7.914-7.89a4525.2 4525.2 0 0015.019 15.02c2.757 2.732 5.443 5.514 8.223 8.2.785.878 1.83.142 2.686-.168.855-.38 1.854.381 1.83 1.283 0 .618-.357 1.141-.76 1.57-3.232 3.208-6.417 6.416-9.625 9.625-.452.451-1.023.902-1.688.855-.737.072-1.45-.64-1.38-1.355.049-.76.643-1.378.643-2.139.048-.642-.5-1.046-.88-1.474-7.58-7.533-15.09-15.137-22.695-22.648.238-.309.452-.594.713-.879m178.359-2.329a771.351 771.351 0 018.77 8.77c.926.88.26 2.637-.975 2.828-1.141.166-2.02-.737-2.9-1.33-2.352-1.618-5.133-3.138-8.08-2.639-.784-.713-1.544-1.45-2.186-2.28 1.83-1.76 3.589-3.567 5.37-5.349M25.44 87.417c.88.333 1.426 1.331 2.139 1.95-.38 2.756.926 5.346 2.47 7.51.453.69.999 1.33 1.284 2.114.31 1.046-.712 2.14-1.758 2.02-.594 0-.998-.499-1.378-.855-2.591-2.615-5.204-5.18-7.795-7.795 1.71-1.617 3.304-3.35 5.038-4.944m52.878 13.405c4.729-1.522 9.862-1.688 14.734-.69 8.27 1.76 15.59 6.607 21.437 12.62 5.727 5.798 10.29 13.071 11.835 21.174.855 4.444.665 9.102-.617 13.451-1.26 4.302-3.543 8.271-6.418 11.693-1.236-1.307-2.59-2.519-3.78-3.85 0-.642.405-1.189.525-1.806.64-2.09 0-4.444-1.593-5.966-11.74-11.763-23.527-23.527-35.268-35.29-1.07-1.094-2.423-1.973-3.968-2.092-1.26-.166-2.496.285-3.684.712-.476.262-.784-.33-1.093-.57-.951-1.02-1.997-1.948-2.947-2.994 0-.07-.024-.214-.024-.285 3.16-2.709 6.869-4.824 10.86-6.107m32.037-1.308c1.093.356 2.09.903 3.113 1.426 3.827 1.854 7.628 3.78 11.479 5.656.332.167.64.428.927.69 3.23 3.28 6.488 6.511 9.743 9.767a16.91 16.91 0 006.369 4.23c1.687.642 3.589.642 5.276.047.856-.285 1.783-.617 2.686-.332a2.665 2.665 0 011.639 2.234c-.071 1.307-.903 2.4-1.782 3.303a765.314 765.314 0 01-8.793 8.77c-.784.713-1.687 1.45-2.781 1.568-1.568.237-3.113-1.425-2.638-2.947.452-1.545 1.07-3.113.809-4.729-.381-2.71-1.926-5.11-3.637-7.177-6.44-6.464-12.904-12.905-19.368-19.393-1-1.046-2.092-1.996-3.042-3.113m72.483 6.464c1.784-1.782 3.589-3.565 5.372-5.37.784.641 1.473 1.402 2.21 2.115-.31 2.376.5 4.728 1.735 6.725.64 1.141 1.568 2.115 2.139 3.303.309.571.095 1.212-.12 1.782a30.553 30.553 0 017.725 7.51c2.4 3.4 4.087 7.44 3.992 11.67.024 4.016-1.711 7.865-4.254 10.907-.69-.713-1.497-1.354-2.092-2.162.12-.88.547-1.735.333-2.614-.237-1.14-1.117-1.949-1.901-2.734-6.273-6.25-12.524-12.499-18.774-18.75-.618-.618-1.355-1.188-2.235-1.259-.831-.096-1.663.142-2.423.403-.737-.688-1.473-1.426-2.186-2.139 3.16-2.709 7.27-4.444 11.478-4.23 1.616-.047 3.185.333 4.753.69-1.901-1.973-3.922-3.827-5.752-5.847m-124.363 13.95c1.307-3.636 3.374-6.963 5.822-9.934 1.212 1.237 2.496 2.424 3.684 3.684.237.761-.38 1.474-.5 2.234-.617 2.044.19 4.278 1.689 5.751 11.549 11.574 23.123 23.124 34.697 34.697 1.117 1.213 2.47 2.353 4.182 2.615 1.52.238 3.019-.285 4.42-.808 1.284 1.283 2.568 2.543 3.85 3.826-2.804 2.448-6.06 4.373-9.53 5.728-5.228 2.02-11.074 2.352-16.564 1.141-8.342-1.83-15.685-6.845-21.555-12.953-5.418-5.679-9.792-12.643-11.336-20.415-1.045-5.156-.712-10.622 1.14-15.566m108.014 6.87c.286-3.613 1.878-7.059 4.255-9.769.688.713 1.426 1.426 2.138 2.14-.261.855-.666 1.758-.427 2.66.142.81.688 1.451 1.259 2.021 6.274 6.25 12.5 12.524 18.775 18.774.736.713 1.449 1.57 2.495 1.854.95.262 1.925-.072 2.85-.357.715.714 1.452 1.427 2.14 2.187-2.994 2.471-6.725 4.207-10.67 4.207-3.826.166-7.581-1.189-10.765-3.185-2.306-1.473-4.421-3.256-6.18-5.324.832 2.781.643 5.895-.665 8.51-1.283 2.565-3.28 4.657-5.252 6.677-.713-.713-1.45-1.45-2.187-2.163.619-.999 1.023-2.187.642-3.35-.451-1.19-1.426-2.045-2.281-2.948a1071.462 1071.462 0 00-5.324-5.347c-1.045-.975-2.163-2.092-3.66-2.187-.88-.094-1.663.357-2.4.785-.736-.713-1.45-1.45-2.186-2.162 2.85-2.876 6.107-5.847 10.29-6.37 3.422-.57 6.868.903 9.292 3.256-1.521-3.042-2.471-6.465-2.14-9.91M41.22 135.091c.713-.689 1.64-1.212 2.638-1.283 1.64-.096 3.138 1.615 2.685 3.208-.356 1.212-1.235 2.281-1.283 3.59.095 1.14 1.046 1.947 1.807 2.708l36.598 36.598c.57.547 1.212 1.093 2.02 1.164 1.378 0 2.448-1.02 3.755-1.33 1.568-.309 3.137 1.117 3.066 2.685-.048 1.07-.642 2.044-1.38 2.804l-18.417 18.42c-.808.783-1.806 1.472-2.97 1.472-1.426.048-2.757-1.306-2.64-2.757.145-1.425 1.332-2.566 1.357-4.04-.048-.879-.738-1.545-1.284-2.162-5.466-5.49-10.956-10.933-16.398-16.398-.214-.166-.5-.642-.808-.31-1.901 1.83-3.731 3.756-5.633 5.585-1.283-1.283-2.566-2.566-3.85-3.873a180.625 180.625 0 015.656-5.656c0-.096.025-.309.025-.405-5.158-5.06-10.22-10.195-15.353-15.304-.784-.737-1.522-1.663-2.614-1.925-1.497-.096-2.662 1.07-4.064 1.331-1.806.31-3.446-1.735-2.828-3.423.309-1.188 1.259-2.044 2.09-2.85 5.942-5.966 11.907-11.884 17.825-17.849m106.112 6.417c2.852 2.661 5.538 5.513 8.342 8.246a10086.52 10086.52 0 0016.018 16.041c.38.31.736.737 1.235.832 1.023.096 1.83-.903 2.853-.713.618.214 1.187.81 1.117 1.497 0 .927-.785 1.57-1.356 2.187-3.35 3.304-6.654 6.654-10.004 9.958-.737.808-2.116.404-2.567-.499-.665-1.117 1.14-2.306.19-3.327a8207.186 8207.186 0 01-20.652-20.653c-.5-.45-.926-1.02-1.521-1.33-1.022-.286-1.83.57-2.78.69-.737-.072-1.45-.714-1.403-1.475-.071-.832.547-1.472 1.069-2.019 3.162-3.138 6.323-6.298 9.459-9.435m-21.198 21.175c2.827-2.78 5.584-5.656 8.46-8.39 2.543 2.567 5.11 5.11 7.653 7.676.855.832-.048 2.092-.927 2.472-.618.071-1.19-.309-1.736-.546-2.185-1.07-4.705-1.593-7.105-.975-1.521.31-2.852 1.164-4.183 1.948-.713-.736-1.425-1.472-2.162-2.185m-11.551 11.573c3.28-3.327 6.608-6.583 9.887-9.887 5.323 5.253 10.575 10.6 15.923 15.852 4.088 4.064 8.128 8.176 12.239 12.216-3.184 3.28-6.463 6.464-9.65 9.72-.45.5-1.092.784-1.686 1.045-.594-.213-1.331-.427-1.521-1.092-.356-1.118.808-1.997.666-3.09-.476-.927-1.308-1.593-2.021-2.329l-17.325-17.326c-1.021-.95-1.877-2.09-3.09-2.803-1.211-.239-2.304 1.306-3.468.474-.998-.64-.713-2.067.046-2.78m23.053-5.893c-.38-.975.523-2.116 1.545-1.95.475.12.83.428 1.164.761 2.495 2.52 5.015 4.991 7.487 7.51.807.832 1.853 1.545 2.186 2.733-.31.523-.642 1.236-1.354 1.307-1.166.12-2.021-.808-3.067-1.189a5.104 5.104 0 00-4.586.025c-.76-.76-1.497-1.522-2.258-2.258.523-1.117.76-2.4.38-3.589-.285-1.212-1.093-2.21-1.497-3.35m15.28 6.202c.5-.76 1.712-.879 2.306-.166 2.567 2.591 5.182 5.157 7.724 7.771-2.923 2.852-5.727 5.846-8.722 8.627-.688-.737-1.426-1.45-2.14-2.187 2.544-3.136 2.9-7.676 1.19-11.288-.31-.856-.975-1.902-.357-2.757"/><path fill="#F96302" d="M.01 184.024c.95-.38 1.855-.975 2.9-.95 1.26.237 2.045 1.354 2.923 2.185 11.955 11.907 23.86 23.837 35.79 35.743.666.738 1.522 1.474 1.64 2.52-.047 1.021-.594 1.925-1.02 2.828-14.094-.024-28.162-.024-42.232-.024 0-14.093-.024-28.21 0-42.302"/><path fill="#FFF" d="M110.639 183.382c4.23-.356 8.437 1.164 11.93 3.47 2.733 1.83 5.276 3.945 7.224 6.583 2.33 3.113 3.755 6.916 3.78 10.837.07 4.468-1.688 8.983-4.872 12.143a88.187 88.187 0 01-2.163-2.162c.427-.807.926-1.663.784-2.614-.237-1.426-1.212-2.59-2.187-3.565l-16.041-16.042c-1.093-1.069-2.33-2.234-3.945-2.352-.88-.095-1.664.356-2.4.784-.69-.76-1.64-1.33-2.068-2.28 2.614-2.687 6.179-4.565 9.958-4.802z"/></g></svg>